<svg width="25" height="25" viewBox="0 0 25 25" fill="none" xmlns="http://www.w3.org/2000/svg">
<path fill-rule="evenodd" clip-rule="evenodd" d="M17.5923 5.87078C17.2025 5.74615 16.7854 5.75536 16.4083 5.8969L2.36476 11.1745C1.43924 11.5218 0.99039 12.5597 1.36215 13.4928C1.55158 13.9682 1.93092 14.347 2.40709 14.5363L8.38322 16.9142L11.1726 22.7103C11.612 23.6177 12.6961 24.0164 13.5941 23.6009C13.7971 23.507 13.9798 23.3755 14.1326 23.2131C14.3165 23.0159 14.4524 22.7786 14.5301 22.5189L18.8139 8.14014C19.0959 7.19267 18.549 6.17664 17.5923 5.87078ZM13.3743 22.1481C13.2802 22.4639 12.9455 22.6372 12.6266 22.5351C12.4641 22.4832 12.3294 22.3658 12.2554 22.2119L9.5388 16.5681L17.6205 7.90154L13.3743 22.1481ZM2.82835 13.421L8.64789 15.7373L16.7296 7.07073L2.81529 12.3016C2.58128 12.3838 2.42965 12.6071 2.43834 12.8568C2.43727 13.1054 2.59365 13.3316 2.82835 13.421Z" fill="#C7B299"/>
</svg>
